<?xml version="1.0" encoding="UTF-8"?>
<svg width="1200" height="420" viewBox="0 0 1200 420" xmlns="http://www.w3.org/2000/svg">
  <title>AndroidClaudio — Claude Code × MCP × Android Testing</title>

  <defs>
    <pattern id="dots" width="40" height="40" patternUnits="userSpaceOnUse">
      <circle cx="20" cy="20" r="0.8" fill="#1E2D45" opacity="0.9"/>
    </pattern>
    <linearGradient id="purpleGlow" x1="0" y1="0" x2="1" y2="1">
      <stop offset="0%" stop-color="#4F46E5" stop-opacity="0.18"/>
      <stop offset="100%" stop-color="#4F46E5" stop-opacity="0"/>
    </linearGradient>
    <linearGradient id="tealGlow" x1="1" y1="1" x2="0" y2="0">
      <stop offset="0%" stop-color="#059669" stop-opacity="0.15"/>
      <stop offset="100%" stop-color="#059669" stop-opacity="0"/>
    </linearGradient>
    <linearGradient id="phoneScreen" x1="0" y1="0" x2="0" y2="1">
      <stop offset="0%" stop-color="#0F1E3D"/>
      <stop offset="100%" stop-color="#060D1C"/>
    </linearGradient>
  </defs>

  <!-- Base background -->
  <rect width="1200" height="420" fill="#060C18"/>

  <!-- Dot grid texture -->
  <rect width="1200" height="420" fill="url(#dots)"/>

  <!-- Ambient glows -->
  <ellipse cx="100" cy="210" rx="320" ry="280" fill="url(#purpleGlow)"/>
  <ellipse cx="1100" cy="280" rx="280" ry="240" fill="url(#tealGlow)"/>

  <!-- Horizontal accent lines top -->
  <line x1="60" y1="44" x2="580" y2="44" stroke="#1A2D4A" stroke-width="0.5"/>
  <line x1="60" y1="376" x2="580" y2="376" stroke="#1A2D4A" stroke-width="0.5"/>

  <!-- Left panel vertical accent -->
  <line x1="44" y1="44" x2="44" y2="376" stroke="#1A2D4A" stroke-width="0.5"/>

  <!-- Corner ticks -->
  <line x1="44" y1="44" x2="60" y2="44" stroke="#4F46E5" stroke-width="1.5"/>
  <line x1="44" y1="44" x2="44" y2="60" stroke="#4F46E5" stroke-width="1.5"/>
  <line x1="44" y1="376" x2="60" y2="376" stroke="#059669" stroke-width="1.5"/>
  <line x1="44" y1="376" x2="44" y2="360" stroke="#059669" stroke-width="1.5"/>

  <!-- ============================================================ -->
  <!-- LEFT TEXT SECTION                                             -->
  <!-- ============================================================ -->

  <!-- Eyebrow label -->
  <rect x="72" y="56" width="156" height="22" rx="11" fill="#0D1730" stroke="#1D3461" stroke-width="0.5"/>
  <text x="80" y="71" font-family="'SF Mono', 'Fira Code', 'Courier New', monospace" font-size="10" fill="#4F7CAC" letter-spacing="1.5">CLAUDE CODE × MCP</text>

  <!-- Main title: Android in green, Claudio in indigo -->
  <text x="72" y="148" font-family="'SF Pro Display', 'Helvetica Neue', Arial, sans-serif" font-size="82" font-weight="800" letter-spacing="-3">
    <tspan fill="#34D399">Android</tspan><tspan fill="#818CF8">Claudio</tspan>
  </text>

  <!-- Tagline -->
  <text x="74" y="178" font-family="'SF Pro Text', 'Helvetica Neue', Arial, sans-serif" font-size="17" fill="#64748B" letter-spacing="0.2">
    AI-powered live testing for Android — direct from Claude Code
  </text>

  <!-- Thin separator -->
  <line x1="72" y1="200" x2="555" y2="200" stroke="#162035" stroke-width="0.5"/>

  <!-- Feature pills row -->
  <!-- Pill: MCP Server -->
  <rect x="72" y="214" width="116" height="26" rx="13" fill="#0A1628" stroke="#1D3D8C" stroke-width="0.75"/>
  <circle cx="88" cy="227" r="4" fill="#3B82F6" opacity="0.8"/>
  <text x="100" y="232" font-family="'SF Mono', monospace" font-size="11" fill="#60A5FA">MCP Server</text>

  <!-- Pill: Class Discovery -->
  <rect x="200" y="214" width="148" height="26" rx="13" fill="#091A14" stroke="#065F46" stroke-width="0.75"/>
  <circle cx="216" cy="227" r="4" fill="#10B981" opacity="0.8"/>
  <text x="228" y="232" font-family="'SF Mono', monospace" font-size="11" fill="#34D399">Class Discovery</text>

  <!-- Pill: AI Mocks -->
  <rect x="360" y="214" width="136" height="26" rx="13" fill="#100B2A" stroke="#3730A3" stroke-width="0.75"/>
  <circle cx="376" cy="227" r="4" fill="#818CF8" opacity="0.8"/>
  <text x="388" y="232" font-family="'SF Mono', monospace" font-size="11" fill="#A5B4FC">Intelligent Mocks</text>

  <!-- Feature list -->
  <text x="74" y="272" font-family="'SF Pro Text', 'Helvetica Neue', Arial, sans-serif" font-size="14" fill="#475569">
    <tspan fill="#34D399">▸</tspan>
    <tspan dx="6" fill="#94A3B8">Discovers classes &amp; public functions in debug APK</tspan>
  </text>
  <text x="74" y="298" font-family="'SF Pro Text', 'Helvetica Neue', Arial, sans-serif" font-size="14" fill="#475569">
    <tspan fill="#818CF8">▸</tspan>
    <tspan dx="6" fill="#94A3B8">Calls live functions directly on emulator via MCP</tspan>
  </text>
  <text x="74" y="324" font-family="'SF Pro Text', 'Helvetica Neue', Arial, sans-serif" font-size="14" fill="#475569">
    <tspan fill="#60A5FA">▸</tspan>
    <tspan dx="6" fill="#94A3B8">Verifies full feature flows with AI mock responses</tspan>
  </text>
  <text x="74" y="350" font-family="'SF Pro Text', 'Helvetica Neue', Arial, sans-serif" font-size="14" fill="#475569">
    <tspan fill="#FB923C">▸</tspan>
    <tspan dx="6" fill="#94A3B8">Flip groups to live mode for real API testing</tspan>
  </text>

  <!-- Version / stack badge bottom-left -->
  <rect x="72" y="388" width="232" height="22" rx="5" fill="#0B1423" stroke="#1E2D45" stroke-width="0.5"/>
  <text x="80" y="403" font-family="'SF Mono', monospace" font-size="10" fill="#334155" letter-spacing="0.8">kotlin · compose · ktor · claude-sdk</text>

  <!-- ============================================================ -->
  <!-- RIGHT VISUAL SECTION  (x: 640–1160)                          -->
  <!-- ============================================================ -->

  <!-- Vertical divider -->
  <line x1="628" y1="60" x2="628" y2="360" stroke="#111D30" stroke-width="0.5" stroke-dasharray="6,5"/>

  <!-- ---- PHONE BODY ---- -->
  <!-- Outer shell -->
  <rect x="830" y="86" width="138" height="242" rx="22" fill="#0A1628" stroke="#1E3A5F" stroke-width="1.2"/>
  <!-- Glass screen bezel -->
  <rect x="843" y="108" width="112" height="196" rx="7" fill="url(#phoneScreen)"/>
  <!-- Home bar -->
  <rect x="882" y="316" width="34" height="4" rx="2" fill="#1A2D45"/>
  <!-- Top pill/notch -->
  <rect x="875" y="96" width="48" height="7" rx="3.5" fill="#070E1C"/>
  <!-- Front camera dot -->
  <circle cx="912" cy="99.5" r="2.5" fill="#0D1B30"/>
  <!-- Side button right -->
  <rect x="968" y="148" width="4" height="36" rx="2" fill="#0F1E38"/>
  <!-- Volume buttons left -->
  <rect x="826" y="138" width="4" height="24" rx="2" fill="#0F1E38"/>
  <rect x="826" y="170" width="4" height="24" rx="2" fill="#0F1E38"/>

  <!-- ---- SCREEN CONTENT ---- -->
  <!-- Top bar: connection status -->
  <rect x="850" y="116" width="98" height="18" rx="4" fill="#0E2041" stroke="#1D4480" stroke-width="0.5"/>
  <circle cx="860" cy="125" r="3.5" fill="#10B981"/>
  <text x="868" y="129" font-family="monospace" font-size="8.5" fill="#60A5FA">MCP Connected</text>

  <!-- Code lines (simulating terminal/IDE) -->
  <rect x="851" y="142" width="72" height="5" rx="2" fill="#102040"/>
  <rect x="851" y="152" width="55" height="5" rx="2" fill="#0F2A1E"/>
  <rect x="851" y="162" width="84" height="5" rx="2" fill="#1A1040"/>
  <rect x="851" y="172" width="48" height="5" rx="2" fill="#102040"/>
  <rect x="851" y="182" width="68" height="5" rx="2" fill="#0F2A1E"/>

  <!-- Separator -->
  <line x1="851" y1="194" x2="942" y2="194" stroke="#152035" stroke-width="0.5"/>

  <!-- AI response block -->
  <rect x="851" y="200" width="92" height="44" rx="5" fill="#0A1F3D" stroke="#1D4480" stroke-width="0.5"/>
  <text x="858" y="214" font-family="monospace" font-size="8" fill="#34D399">✓ 3 classes found</text>
  <text x="858" y="226" font-family="monospace" font-size="8" fill="#60A5FA">✓ Flow verified</text>
  <text x="858" y="238" font-family="monospace" font-size="8" fill="#A5B4FC">✓ Mocks applied</text>

  <!-- Live badge -->
  <rect x="851" y="252" width="44" height="16" rx="4" fill="#052814" stroke="#065F46" stroke-width="0.5"/>
  <circle cx="861" cy="260" r="2.5" fill="#10B981"/>
  <text x="866" y="264" font-family="monospace" font-size="8" fill="#34D399">LIVE</text>

  <!-- Test progress bar -->
  <rect x="851" y="277" width="92" height="6" rx="3" fill="#0D1B30"/>
  <rect x="851" y="277" width="68" height="6" rx="3" fill="#10B981" opacity="0.7"/>
  <text x="851" y="295" font-family="monospace" font-size="7.5" fill="#334155">74% flows passing</text>

  <!-- ---- FLOATING NODES ---- -->

  <!-- TOP NODE: Claude Code -->
  <rect x="826" y="18" width="146" height="44" rx="9" fill="#0A1628" stroke="#3730A3" stroke-width="1"/>
  <text x="899" y="36" font-family="'SF Pro Text', Arial, sans-serif" font-size="12" font-weight="600" fill="#818CF8" text-anchor="middle">Claude Code</text>
  <text x="899" y="52" font-family="monospace" font-size="9" fill="#3730A3" text-anchor="middle">AI orchestrator</text>
  <!-- Connector line: top node → phone top -->
  <line x1="899" y1="62" x2="899" y2="86" stroke="#4F46E5" stroke-width="1" stroke-dasharray="3,3" opacity="0.7"/>
  <polygon points="894,82 904,82 899,88" fill="#4F46E5" opacity="0.8"/>

  <!-- LEFT NODE: MCP Server -->
  <rect x="665" y="178" width="138" height="56" rx="9" fill="#0A1628" stroke="#065F46" stroke-width="1"/>
  <text x="734" y="200" font-family="'SF Pro Text', Arial, sans-serif" font-size="12" font-weight="600" fill="#34D399" text-anchor="middle">MCP Server</text>
  <text x="734" y="215" font-family="monospace" font-size="9" fill="#064E3B" text-anchor="middle">embedded in APK</text>
  <circle cx="734" cy="226" r="3" fill="#10B981" opacity="0.6"/>
  <text x="742" y="230" font-family="monospace" font-size="8" fill="#064E3B">active</text>
  <!-- Connector: left node → phone left -->
  <line x1="803" y1="206" x2="830" y2="206" stroke="#059669" stroke-width="1" stroke-dasharray="3,3" opacity="0.7"/>
  <polygon points="826,201 826,211 832,206" fill="#059669" opacity="0.8"/>

  <!-- RIGHT NODE: Debug APK -->
  <rect x="996" y="178" width="138" height="56" rx="9" fill="#0A1628" stroke="#92400E" stroke-width="1"/>
  <text x="1065" y="200" font-family="'SF Pro Text', Arial, sans-serif" font-size="12" font-weight="600" fill="#FB923C" text-anchor="middle">Debug APK</text>
  <text x="1065" y="215" font-family="monospace" font-size="9" fill="#92400E" text-anchor="middle">emulator / device</text>
  <circle cx="1055" cy="226" r="3" fill="#F59E0B" opacity="0.6"/>
  <text x="1063" y="230" font-family="monospace" font-size="8" fill="#92400E">ready</text>
  <!-- Connector: phone right → right node -->
  <line x1="968" y1="206" x2="996" y2="206" stroke="#EA580C" stroke-width="1" stroke-dasharray="3,3" opacity="0.7"/>
  <polygon points="992,201 992,211 998,206" fill="#EA580C" opacity="0.8"/>

  <!-- BOTTOM NODE: Feature Flows -->
  <rect x="826" y="348" width="146" height="40" rx="9" fill="#0A1628" stroke="#1E3A5F" stroke-width="1"/>
  <text x="899" y="365" font-family="'SF Pro Text', Arial, sans-serif" font-size="12" font-weight="600" fill="#60A5FA" text-anchor="middle">Feature Flows</text>
  <text x="899" y="380" font-family="monospace" font-size="9" fill="#1E3A5F" text-anchor="middle">AI verification engine</text>
  <!-- Connector: phone bottom → bottom node -->
  <line x1="899" y1="328" x2="899" y2="348" stroke="#3B82F6" stroke-width="1" stroke-dasharray="3,3" opacity="0.7"/>
  <polygon points="894,344 904,344 899,350" fill="#3B82F6" opacity="0.8"/>

  <!-- Decorative corner dots top-right -->
  <circle cx="1148" cy="32" r="2.5" fill="#1E2D45"/>
  <circle cx="1162" cy="32" r="2.5" fill="#1E2D45"/>
  <circle cx="1176" cy="32" r="2.5" fill="#1E2D45"/>
  <circle cx="1148" cy="46" r="2.5" fill="#1E2D45"/>
  <circle cx="1162" cy="46" r="2.5" fill="#1E2D45"/>
  <circle cx="1176" cy="46" r="2.5" fill="#1E2D45"/>

  <!-- Top-right corner ticks -->
  <line x1="1156" y1="18" x2="1186" y2="18" stroke="#059669" stroke-width="1.5"/>
  <line x1="1186" y1="18" x2="1186" y2="48" stroke="#059669" stroke-width="1.5"/>

  <!-- Bottom-right corner ticks -->
  <line x1="1156" y1="402" x2="1186" y2="402" stroke="#4F46E5" stroke-width="1.5"/>
  <line x1="1186" y1="402" x2="1186" y2="372" stroke="#4F46E5" stroke-width="1.5"/>

</svg>
